<?xml version="1.0" encoding="utf-8"?>
<!-- Generator: Adobe Illustrator 16.0.4, SVG Export Plug-In . SVG Version: 6.00 Build 0)  -->
<!DOCTYPE svg PUBLIC "-//W3C//DTD SVG 1.1//EN" "http://www.w3.org/Graphics/SVG/1.1/DTD/svg11.dtd">
<svg version="1.1" id="Layer_1" xmlns="http://www.w3.org/2000/svg" xmlns:xlink="http://www.w3.org/1999/xlink" x="0px" y="0px"
	 width="35px" height="35.001px" viewBox="0 0 35 35.001" enable-background="new 0 0 35 35.001" xml:space="preserve">
<pattern  x="69.656" y="-257.378" width="14.548" height="17.511" patternUnits="userSpaceOnUse" id="New_Pattern" viewBox="3.637 -17.511 14.548 17.511" overflow="visible">
	<g>
		<polygon fill="none" points="3.637,-17.511 18.185,-17.511 18.185,0 3.637,0 		"/>
		<g>
			
				<line fill="none" stroke="#D1C674" stroke-width="0.2" stroke-linecap="square" stroke-miterlimit="10" x1="14.678" y1="-0.131" x2="21.691" y2="-17.381"/>
			
				<line fill="none" stroke="#D1C674" stroke-width="0.2" stroke-linecap="square" stroke-miterlimit="10" x1="21.691" y1="-0.131" x2="14.678" y2="-17.381"/>
		</g>
		<g>
			
				<line fill="none" stroke="#D1C674" stroke-width="0.2" stroke-linecap="square" stroke-miterlimit="10" x1="7.404" y1="-0.131" x2="14.417" y2="-17.381"/>
			
				<line fill="none" stroke="#D1C674" stroke-width="0.2" stroke-linecap="square" stroke-miterlimit="10" x1="14.417" y1="-0.131" x2="7.404" y2="-17.381"/>
		</g>
		<g>
			
				<line fill="none" stroke="#D1C674" stroke-width="0.2" stroke-linecap="square" stroke-miterlimit="10" x1="0.13" y1="-0.131" x2="7.144" y2="-17.381"/>
			
				<line fill="none" stroke="#D1C674" stroke-width="0.2" stroke-linecap="square" stroke-miterlimit="10" x1="7.144" y1="-0.131" x2="0.13" y2="-17.381"/>
		</g>
	</g>
</pattern>
<rect x="84.73" y="-501.378" fill="#F7F7F7" width="12.926" height="29.732"/>
<rect x="154.221" y="-123.172" fill="#A49262" width="49.283" height="59.331"/>
<rect x="501.827" y="-117.817" fill="#D4AC69" width="49.282" height="59.331"/>
<rect x="501.827" y="-177.147" fill="#BD8507" width="49.282" height="59.331"/>
<rect x="203.504" y="-123.172" fill="#D1C674" width="49.282" height="59.33"/>
<rect x="252.787" y="-123.172" fill="#132241" width="49.281" height="59.331"/>
<rect x="452.546" y="-236.478" fill="#0040B2" width="49.282" height="59.331"/>
<rect x="501.828" y="-236.478" fill="#00686D" width="49.281" height="59.331"/>
<rect x="252.786" y="-241.833" fill="#B2B6BA" width="49.282" height="59.331"/>
<rect x="252.786" y="-182.502" fill="#45484B" width="49.282" height="59.331"/>
<line fill="none" stroke="#D1C674" stroke-width="0.2" stroke-linecap="square" stroke-miterlimit="10" x1="84.188" y1="-469.359" x2="98.292" y2="-503.745"/>
<line fill="none" stroke="#D1C674" stroke-width="0.2" stroke-linecap="square" stroke-miterlimit="10" x1="98.037" y1="-469.98" x2="84.442" y2="-503.123"/>
<rect x="85.323" y="-633.859" fill="url(#New_Pattern)" stroke="#D1C674" stroke-width="0.25" stroke-linecap="round" stroke-miterlimit="10" width="1500" height="110"/>
<path fill="#A49262" d="M17.5-70.071c-9.665,0-17.5,7.836-17.5,17.5c0,9.666,7.835,17.5,17.5,17.5c9.665,0,17.5-7.834,17.5-17.5
	C35-62.235,27.165-70.071,17.5-70.071z M24.485-55.292c0.007,0.152,0.01,0.309,0.01,0.465c0,4.752-3.616,10.232-10.232,10.232
	c-2.031,0-3.921-0.598-5.513-1.615c0.281,0.033,0.568,0.051,0.858,0.051c1.685,0,3.235-0.576,4.466-1.541
	c-1.574-0.027-2.902-1.068-3.359-2.498c0.219,0.043,0.445,0.064,0.676,0.064c0.329,0,0.646-0.041,0.948-0.125
	c-1.646-0.33-2.886-1.783-2.886-3.527v-0.045c0.485,0.268,1.041,0.432,1.63,0.451c-0.965-0.646-1.601-1.748-1.601-2.996
	c0-0.658,0.178-1.275,0.487-1.809c1.775,2.178,4.424,3.607,7.413,3.76c-0.062-0.264-0.092-0.537-0.092-0.82
	c0-1.986,1.61-3.596,3.595-3.596c1.035,0,1.97,0.436,2.625,1.135c0.82-0.16,1.589-0.459,2.285-0.871
	c-0.268,0.84-0.838,1.543-1.581,1.988c0.727-0.086,1.42-0.281,2.065-0.566C25.799-56.433,25.188-55.8,24.485-55.292z"/>
<path fill="#A49262" d="M17.5,0.001C7.834,0.001,0,7.837,0,17.501s7.834,17.5,17.5,17.5c9.667,0,17.5-7.836,17.5-17.5
	S27.167,0.001,17.5,0.001z M12.603,24.819H9.191V13.903h3.412V24.819z M10.81,12.538h-0.025c-1.234,0-2.035-0.834-2.035-1.891
	c0-1.078,0.824-1.896,2.083-1.896c1.258,0,2.032,0.816,2.057,1.893C12.89,11.7,12.091,12.538,10.81,12.538z M26.25,24.819h-3.868
	v-5.648c0-1.479-0.604-2.488-1.935-2.488c-1.018,0-1.583,0.682-1.847,1.338c-0.098,0.236-0.083,0.562-0.083,0.893v5.906h-3.832
	c0,0,0.05-10.006,0-10.916h3.832v1.715c0.227-0.75,1.45-1.82,3.405-1.82c2.423,0,4.328,1.572,4.328,4.953V24.819z"/>
<g>
	<path fill="#A49262" d="M17.502-107.401c1.698,0,3.081-1.382,3.081-3.08c0-0.671-0.218-1.29-0.584-1.797
		c-0.56-0.775-1.469-1.284-2.497-1.284s-1.937,0.509-2.497,1.284c-0.365,0.507-0.583,1.126-0.583,1.797
		C14.422-108.783,15.804-107.401,17.502-107.401z"/>
	<polygon fill="#A49262" points="24.227,-114.25 24.227,-116.83 24.227,-117.216 23.84,-117.215 21.26,-117.206 21.27,-114.239 	"/>
	<path fill="#A49262" d="M22.287-110.481c0,2.639-2.146,4.785-4.785,4.785s-4.785-2.146-4.785-4.785
		c0-0.635,0.126-1.241,0.353-1.797h-2.613v7.165c0,0.925,0.752,1.677,1.677,1.677H22.87c0.926,0,1.677-0.752,1.677-1.677v-7.165
		h-2.613C22.159-111.723,22.287-111.116,22.287-110.481z"/>
	<path fill="#A49262" d="M17.5-127.981c-9.667,0-17.5,7.835-17.5,17.5c0,9.664,7.833,17.5,17.5,17.5c9.666,0,17.5-7.836,17.5-17.5
		C35-120.146,27.166-127.981,17.5-127.981z M26.252-112.278v7.165c0,1.864-1.517,3.382-3.382,3.382H12.134
		c-1.865,0-3.382-1.518-3.382-3.382v-7.165v-3.571c0-1.865,1.518-3.382,3.382-3.382H22.87c1.865,0,3.382,1.517,3.382,3.382V-112.278
		z"/>
</g>
</svg>
