<?xml version="1.0" encoding="utf-8"?>
<!-- Generator: Adobe Illustrator 16.0.4, SVG Export Plug-In . SVG Version: 6.00 Build 0)  -->
<!DOCTYPE svg PUBLIC "-//W3C//DTD SVG 1.1//EN" "http://www.w3.org/Graphics/SVG/1.1/DTD/svg11.dtd">
<svg version="1.1" id="Layer_1" xmlns="http://www.w3.org/2000/svg" xmlns:xlink="http://www.w3.org/1999/xlink" x="0px" y="0px"
	 width="70px" height="26.602px" viewBox="0 0 70 26.602" enable-background="new 0 0 70 26.602" xml:space="preserve">
<g>
	<g>
		<g>
			<path fill="#132241" d="M32.418,8.312l-3.064-2.206L28.99,4.67l-1.971-0.729l0.514-1.734h-2.1L23.312,0l-0.106,1.585
				l-4.194-0.761l0.915,2.265L16.451,4l1.667,1.293l-1.031,1.104h-1.415l-2.679,2.366l-5.651,1.512l-0.414,0.422L1.497,9.95
				l0.173-2.502l2.608-0.636L4.9,8.021L6.324,8.06L5.948,6.516L4.643,5.867L0.887,6.825L0,10.734l5.686,1.226l-0.749,0.76
				l-0.448,4.752l-3.657,6.218L0.54,26.602h4.104l-0.723-2.973l2.093-2.601l2.287-4.359l1.291,0.158l0.624,0.913L9.61,20.518
				l-0.996,0.801l2.736,4.381h3.011l-0.273-1.291l-0.803-0.156l-1.808-1.956l0.147-1.485l3.743-4.277l1,0.326l0.296,7.642
				l-0.136,1.761h3.382l-0.762-1.644l-0.189-5.121l1.682-1.721l0.401-0.048v0.844l1.846-0.867l2.083,6.921l3.813,0.312l-0.352-1.74
				l-1.075-0.098l-1.117-6.599l2.022,1.514l0.085-5.592l-0.878-1.177l3.92,0.812L32.418,8.312z"/>
		</g>
	</g>
	<path fill="#B2B6BA" d="M49.457,13.827c0.17,0.22,0.28,0.416,0.33,0.586c0.024,0.1,0.036,0.185,0.036,0.259l-0.036,10.418
		c0.024,0.073,0.024,0.158,0,0.256c-0.05,0.148-0.16,0.332-0.33,0.551c-0.147,0.147-0.319,0.245-0.513,0.294l-0.294,0.072h-4.255
		h-1.027c-0.05,0-0.098-0.011-0.147-0.035c-0.048-0.024-0.091-0.043-0.127-0.057c-0.038-0.011-0.08-0.041-0.129-0.091
		c-0.049-0.049-0.08-0.092-0.092-0.128c-0.013-0.037-0.031-0.08-0.055-0.129c-0.025-0.049-0.037-0.098-0.037-0.146V1.244
		c0-0.049,0.012-0.098,0.037-0.146C42.84,1.048,42.858,1,42.871,0.95c0.012-0.049,0.043-0.098,0.092-0.146
		c0.049-0.048,0.098-0.072,0.147-0.072s0.098-0.013,0.147-0.038c0.049,0,0.098-0.011,0.146-0.036h0.55h4.402
		c0.123,0.025,0.232,0.05,0.331,0.074c0.098,0.048,0.202,0.092,0.312,0.127c0.11,0.037,0.227,0.117,0.349,0.239
		s0.208,0.238,0.257,0.349c0.049,0.11,0.098,0.227,0.147,0.348c0.049,0.123,0.073,0.246,0.073,0.367v9.832
		c-0.024,0.122-0.049,0.245-0.073,0.367c-0.049,0.121-0.092,0.237-0.128,0.348c-0.037,0.11-0.117,0.227-0.239,0.349
		c-0.147,0.147-0.342,0.27-0.587,0.366C49.041,13.522,49.26,13.657,49.457,13.827z M45.165,11.845c0,0.099,0.048,0.196,0.146,0.294
		c0.097,0.099,0.195,0.147,0.293,0.147h0.11h1.173h0.147c0.074,0,0.159-0.049,0.257-0.147c0.049-0.049,0.079-0.092,0.092-0.128
		c0.011-0.037,0.03-0.08,0.054-0.128c0.024-0.05,0.037-0.099,0.037-0.147V3.628c0-0.05-0.013-0.098-0.037-0.146
		c-0.024-0.049-0.043-0.098-0.054-0.147c-0.013-0.049-0.043-0.097-0.092-0.146c-0.074-0.049-0.16-0.097-0.257-0.146
		c-0.05-0.023-0.099-0.036-0.147-0.036h-1.173h-0.147c-0.073,0-0.159,0.048-0.256,0.146c-0.099,0.1-0.146,0.196-0.146,0.294v0.147
		V11.845z M47.254,23.768c0.025-0.049,0.061-0.098,0.111-0.146c0.024-0.049,0.049-0.098,0.073-0.146
		c0.024-0.049,0.037-0.099,0.037-0.148v-8.144c0-0.049-0.013-0.104-0.037-0.165c-0.024-0.062-0.049-0.116-0.073-0.165
		c-0.024-0.048-0.05-0.085-0.073-0.11c-0.025-0.024-0.062-0.048-0.11-0.072c-0.099-0.05-0.184-0.074-0.257-0.074h-1.211
		c-0.049,0.024-0.098,0.037-0.147,0.037c-0.049,0.023-0.086,0.037-0.109,0.037c-0.025,0-0.062,0.024-0.11,0.072
		c-0.123,0.098-0.183,0.197-0.183,0.295v0.146v8.108c0,0.072,0.012,0.135,0.036,0.184c0.024,0.048,0.042,0.092,0.056,0.127
		c0.012,0.037,0.042,0.081,0.091,0.129c0.073,0.098,0.158,0.146,0.257,0.146h0.146h1.137c0.123,0,0.208-0.012,0.257-0.036
		C47.194,23.818,47.23,23.793,47.254,23.768z"/>
	<path fill="#45484B" d="M69.963,25.494c0.049,0.171,0.049,0.317,0,0.439c-0.049,0.122-0.159,0.208-0.33,0.257
		c-0.073,0.023-0.135,0.037-0.184,0.037h-1.394h-0.074c-0.073,0-0.134-0.024-0.183-0.075c-0.074,0-0.135-0.022-0.184-0.072
		c-0.024-0.024-0.037-0.049-0.037-0.073l-3.521-4.659v4.33c0,0.048-0.013,0.097-0.037,0.146c-0.025,0.049-0.042,0.098-0.055,0.146
		c-0.013,0.051-0.042,0.1-0.092,0.148c-0.098,0.097-0.183,0.146-0.256,0.146H63.47h-1.174c-0.049,0-0.097-0.011-0.146-0.035
		c-0.049-0.024-0.098-0.043-0.146-0.057c-0.049-0.011-0.098-0.041-0.147-0.091c-0.098-0.073-0.147-0.159-0.147-0.257v-0.146V1.244
		c0-0.049,0.012-0.098,0.037-0.146C61.77,1.048,61.789,1,61.801,0.95c0.012-0.049,0.042-0.098,0.092-0.146
		c0.049-0.048,0.097-0.072,0.147-0.072c0.048,0,0.097-0.013,0.147-0.038c0.048,0,0.085-0.011,0.109-0.036h1.174
		c0.024,0,0.073,0.013,0.147,0.036c0.049,0.025,0.097,0.043,0.146,0.056c0.048,0.012,0.097,0.043,0.147,0.092
		c0.098,0.147,0.147,0.244,0.147,0.293v0.11v13.354L67.469,1.17c0-0.024,0.011-0.061,0.037-0.11
		c0.073-0.122,0.134-0.208,0.184-0.257c0.048-0.048,0.085-0.072,0.11-0.072c0.024,0,0.061-0.013,0.11-0.038
		c0.049,0,0.085-0.011,0.11-0.036h1.357c0.024,0,0.062,0.013,0.111,0.036c0.048,0.025,0.097,0.043,0.146,0.056
		C69.682,0.76,69.73,0.792,69.78,0.84c0.097,0.147,0.146,0.232,0.146,0.257v0.146L65.635,19.66l4.255,5.65
		C69.914,25.358,69.939,25.418,69.963,25.494z"/>
</g>
</svg>
