<?xml version="1.0" encoding="utf-8"?>
<!-- Generator: Adobe Illustrator 16.0.4, SVG Export Plug-In . SVG Version: 6.00 Build 0)  -->
<!DOCTYPE svg PUBLIC "-//W3C//DTD SVG 1.1//EN" "http://www.w3.org/Graphics/SVG/1.1/DTD/svg11.dtd">
<svg version="1.1" id="Layer_1" xmlns="http://www.w3.org/2000/svg" xmlns:xlink="http://www.w3.org/1999/xlink" x="0px" y="0px"
	 width="35px" height="35.001px" viewBox="0 0 35 35.001" enable-background="new 0 0 35 35.001" xml:space="preserve">
<pattern  x="69.656" y="-187.307" width="14.548" height="17.511" patternUnits="userSpaceOnUse" id="New_Pattern" viewBox="3.637 -17.511 14.548 17.511" overflow="visible">
	<g>
		<polygon fill="none" points="3.637,-17.511 18.185,-17.511 18.185,0 3.637,0 		"/>
		<g>
			
				<line fill="none" stroke="#D1C674" stroke-width="0.2" stroke-linecap="square" stroke-miterlimit="10" x1="14.678" y1="-0.131" x2="21.691" y2="-17.381"/>
			
				<line fill="none" stroke="#D1C674" stroke-width="0.2" stroke-linecap="square" stroke-miterlimit="10" x1="21.691" y1="-0.131" x2="14.678" y2="-17.381"/>
		</g>
		<g>
			
				<line fill="none" stroke="#D1C674" stroke-width="0.2" stroke-linecap="square" stroke-miterlimit="10" x1="7.404" y1="-0.131" x2="14.417" y2="-17.381"/>
			
				<line fill="none" stroke="#D1C674" stroke-width="0.2" stroke-linecap="square" stroke-miterlimit="10" x1="14.417" y1="-0.131" x2="7.404" y2="-17.381"/>
		</g>
		<g>
			
				<line fill="none" stroke="#D1C674" stroke-width="0.2" stroke-linecap="square" stroke-miterlimit="10" x1="0.13" y1="-0.131" x2="7.144" y2="-17.381"/>
			
				<line fill="none" stroke="#D1C674" stroke-width="0.2" stroke-linecap="square" stroke-miterlimit="10" x1="7.144" y1="-0.131" x2="0.13" y2="-17.381"/>
		</g>
	</g>
</pattern>
<rect x="84.73" y="-431.307" fill="#F7F7F7" width="12.926" height="29.732"/>
<rect x="154.221" y="-53.101" fill="#A49262" width="49.283" height="59.331"/>
<rect x="501.827" y="-47.746" fill="#D4AC69" width="49.282" height="59.331"/>
<rect x="501.827" y="-107.076" fill="#BD8507" width="49.282" height="59.331"/>
<rect x="203.504" y="-53.101" fill="#D1C674" width="49.282" height="59.33"/>
<rect x="252.787" y="-53.101" fill="#132241" width="49.281" height="59.331"/>
<rect x="452.546" y="-166.407" fill="#0040B2" width="49.282" height="59.331"/>
<rect x="501.828" y="-166.407" fill="#00686D" width="49.281" height="59.331"/>
<rect x="252.786" y="-171.762" fill="#B2B6BA" width="49.282" height="59.331"/>
<rect x="252.786" y="-112.431" fill="#45484B" width="49.282" height="59.331"/>
<line fill="none" stroke="#D1C674" stroke-width="0.2" stroke-linecap="square" stroke-miterlimit="10" x1="84.188" y1="-399.288" x2="98.292" y2="-433.673"/>
<line fill="none" stroke="#D1C674" stroke-width="0.2" stroke-linecap="square" stroke-miterlimit="10" x1="98.037" y1="-399.909" x2="84.442" y2="-433.052"/>
<rect x="85.323" y="-563.788" fill="url(#New_Pattern)" stroke="#D1C674" stroke-width="0.25" stroke-linecap="round" stroke-miterlimit="10" width="1500" height="110"/>
<path fill="#A49262" d="M17.5,0C7.835,0,0,7.836,0,17.5C0,27.166,7.835,35,17.5,35C27.165,35,35,27.166,35,17.5
	C35,7.836,27.165,0,17.5,0z M24.485,14.779c0.007,0.152,0.01,0.309,0.01,0.465c0,4.752-3.616,10.232-10.232,10.232
	c-2.031,0-3.921-0.598-5.513-1.615c0.281,0.033,0.568,0.051,0.858,0.051c1.685,0,3.235-0.576,4.466-1.541
	c-1.574-0.027-2.902-1.068-3.359-2.498c0.219,0.043,0.445,0.064,0.676,0.064c0.329,0,0.646-0.041,0.948-0.125
	c-1.646-0.33-2.886-1.783-2.886-3.527V16.24c0.485,0.268,1.041,0.432,1.63,0.451c-0.965-0.646-1.601-1.748-1.601-2.996
	c0-0.658,0.178-1.275,0.487-1.809c1.775,2.178,4.424,3.607,7.413,3.76c-0.062-0.264-0.092-0.537-0.092-0.82
	c0-1.986,1.61-3.596,3.595-3.596c1.035,0,1.97,0.436,2.625,1.135c0.82-0.16,1.589-0.459,2.285-0.871
	c-0.268,0.84-0.838,1.543-1.581,1.988c0.727-0.086,1.42-0.281,2.065-0.566C25.799,13.639,25.188,14.271,24.485,14.779z"/>
<path fill="#A49262" d="M17.5,70.072c-9.666,0-17.5,7.836-17.5,17.5s7.834,17.5,17.5,17.5c9.667,0,17.5-7.836,17.5-17.5
	S27.167,70.072,17.5,70.072z M12.603,94.891H9.191V83.975h3.412V94.891z M10.81,82.609h-0.025c-1.234,0-2.035-0.834-2.035-1.891
	c0-1.078,0.824-1.896,2.083-1.896c1.258,0,2.032,0.816,2.057,1.893C12.89,81.771,12.091,82.609,10.81,82.609z M26.25,94.891h-3.868
	v-5.648c0-1.479-0.604-2.488-1.935-2.488c-1.018,0-1.583,0.682-1.847,1.338c-0.098,0.236-0.083,0.562-0.083,0.893v5.906h-3.832
	c0,0,0.05-10.006,0-10.916h3.832v1.715c0.227-0.75,1.45-1.82,3.405-1.82c2.423,0,4.328,1.572,4.328,4.953V94.891z"/>
<g>
	<path fill="#A49262" d="M17.502-37.33c1.698,0,3.081-1.382,3.081-3.08c0-0.671-0.218-1.29-0.584-1.797
		c-0.56-0.775-1.469-1.284-2.497-1.284s-1.937,0.509-2.497,1.284c-0.365,0.507-0.583,1.126-0.583,1.797
		C14.422-38.712,15.804-37.33,17.502-37.33z"/>
	<polygon fill="#A49262" points="24.227,-44.179 24.227,-46.759 24.227,-47.145 23.84,-47.144 21.26,-47.135 21.27,-44.168 	"/>
	<path fill="#A49262" d="M22.287-40.41c0,2.639-2.146,4.785-4.785,4.785s-4.785-2.146-4.785-4.785c0-0.635,0.126-1.241,0.353-1.797
		h-2.613v7.165c0,0.925,0.752,1.677,1.677,1.677H22.87c0.926,0,1.677-0.752,1.677-1.677v-7.165h-2.613
		C22.159-41.651,22.287-41.045,22.287-40.41z"/>
	<path fill="#A49262" d="M17.5-57.91C7.833-57.91,0-50.075,0-40.41c0,9.664,7.833,17.5,17.5,17.5c9.666,0,17.5-7.836,17.5-17.5
		C35-50.075,27.166-57.91,17.5-57.91z M26.252-42.207v7.165c0,1.864-1.517,3.382-3.382,3.382H12.134
		c-1.865,0-3.382-1.518-3.382-3.382v-7.165v-3.571c0-1.865,1.518-3.382,3.382-3.382H22.87c1.865,0,3.382,1.517,3.382,3.382V-42.207z
		"/>
</g>
</svg>
